<svg width="39" height="39" viewBox="0 0 39 39" fill="none" xmlns="http://www.w3.org/2000/svg">
<rect x="5.54199" y="8.54199" width="28.916" height="21.916" rx="3.79396" fill="white"/>
<rect x="5.54199" y="8.54199" width="28.916" height="21.916" rx="3.79396" stroke="black" stroke-width="1.08399"/>
<path d="M15.4681 20.4681C17.4168 20.4681 18.9965 18.8884 18.9965 16.9397C18.9965 14.9911 17.4168 13.4113 15.4681 13.4113C13.5194 13.4113 11.9397 14.9911 11.9397 16.9397C11.9397 18.8884 13.5194 20.4681 15.4681 20.4681Z" fill="#292D32"/>
<path d="M15.4681 22.2323C11.9327 22.2323 9.05353 24.6034 9.05353 27.5249C9.05353 27.7225 9.20878 27.8777 9.40637 27.8777H21.5299C21.7275 27.8777 21.8827 27.7225 21.8827 27.5249C21.8827 24.6034 19.0036 22.2323 15.4681 22.2323Z" fill="#292D32"/>
<path d="M24.5319 20.4681C26.4805 20.4681 28.0602 18.8884 28.0602 16.9397C28.0602 14.9911 26.4805 13.4113 24.5319 13.4113C22.5832 13.4113 21.0035 14.9911 21.0035 16.9397C21.0035 18.8884 22.5832 20.4681 24.5319 20.4681Z" fill="#292D32" fill-opacity="0.3"/>
<path d="M24.5318 22.2323C20.9964 22.2323 18.1172 24.6034 18.1172 27.5249C18.1172 27.7225 18.2725 27.8777 18.4701 27.8777H30.5936C30.7912 27.8777 30.9464 27.7225 30.9464 27.5249C30.9464 24.6034 28.0673 22.2323 24.5318 22.2323Z" fill="#292D32" fill-opacity="0.3"/>
</svg>
