<svg width="240" height="38" viewBox="0 0 240 38" fill="none" xmlns="http://www.w3.org/2000/svg">
<rect y="2.54269" width="32.9146" height="32.9146" rx="10.1276" fill="white"/>
<path d="M26.565 15.2684C27.2167 17.9779 25.5993 19.8653 23.6617 21.5524C21.1645 23.727 18.2452 25.5998 16.4271 29.051C14.6139 25.1096 10.7645 23.2851 8.22472 20.5599C6.78464 19.0147 6.14539 17.2005 6.37558 15.249C6.47276 14.4251 6.94913 13.289 8.22863 13.3032C9.67955 13.3194 9.54243 14.5171 9.40934 15.3515C9.10611 17.2526 10.2717 18.6972 11.7723 19.9692C13.2337 21.208 14.8446 22.3325 16.4792 23.575C18.8257 21.8762 21.211 20.3883 22.8187 18.288C23.503 17.3941 23.708 16.3997 23.6095 15.3505C23.5445 14.6588 23.419 13.4665 24.6859 13.3032C26.0126 13.1323 26.3312 14.2962 26.565 15.2684Z" fill="white"/>
<path d="M6.47642 15.2684C5.82479 17.9779 7.44213 19.8653 9.37972 21.5524C11.877 23.727 14.7962 25.5998 16.6144 29.051C18.4275 25.1096 22.277 23.2851 24.8167 20.5599C26.2568 19.0147 26.8961 17.2005 26.6659 15.249C26.5687 14.4251 26.0923 13.289 24.8128 13.3032C23.3619 13.3194 23.499 14.5171 23.6321 15.3515C23.9353 17.2526 22.7697 18.6972 21.2691 19.9692C19.8077 21.208 18.1968 22.3325 16.5623 23.575C14.2158 21.8762 11.8304 20.3883 10.2228 18.288C9.53845 17.3941 9.33344 16.3997 9.43196 15.3505C9.49691 14.6588 9.6224 13.4665 8.3555 13.3032C7.02885 13.1323 6.71022 14.2962 6.47642 15.2684Z" fill="#F135A6"/>
<path d="M16.684 14.8413C13.7569 13.4522 11.5547 10.2174 7.62477 12.378C9.53263 9.68073 12.7658 10.1068 15.0414 11.1649C16.7338 11.9519 16.5473 12.0506 18.2066 11.2632C20.5801 10.137 23.6893 9.80202 25.7628 12.1238C22.3694 11.7214 19.3277 12.2848 16.684 14.8413Z" fill="#F135A6"/>
<path d="M59.9252 29.3064C59.3496 29.3064 58.6626 29.1857 57.8642 28.9443C57.0658 28.7029 56.2303 28.3687 55.3576 27.9417C54.5035 27.5146 53.6587 27.0226 52.8232 26.4656C52.0062 25.9086 51.2635 25.3144 50.5951 24.6831C49.9267 24.0333 49.3883 23.3648 48.9798 22.6779C48.5899 21.9909 48.3949 21.3317 48.3949 20.7005C48.3949 19.8092 48.5899 18.8994 48.9798 17.9711C49.3883 17.0427 49.9267 16.1236 50.5951 15.2138C51.2635 14.2855 52.0248 13.4128 52.8789 12.5959C53.7516 11.7603 54.6521 11.0084 55.5804 10.3399C56.1374 9.93146 56.6109 9.64367 57.0008 9.47657C57.3907 9.30946 57.7714 9.22591 58.1427 9.22591C58.644 9.22591 59.0432 9.36516 59.3403 9.64367C59.6559 9.92218 59.8137 10.3214 59.8137 10.8413C59.8137 11.3054 59.6559 11.7325 59.3403 12.1224C59.0246 12.4937 58.5326 12.9115 57.8642 13.3757C56.973 13.9327 56.156 14.5269 55.4133 15.1581C54.6892 15.7709 54.0579 16.3929 53.5195 17.0241C52.9996 17.6369 52.5911 18.2124 52.294 18.7509C52.0155 19.2893 51.8763 19.7442 51.8763 20.1156C51.8763 20.4684 52.0805 20.8954 52.489 21.3967C52.916 21.898 53.4916 22.4179 54.2157 22.9564C54.9399 23.4948 55.7754 24.0054 56.7223 24.4882C57.6878 24.9523 58.6997 25.333 59.758 25.63C60.4636 25.8157 60.9556 26.0757 61.2341 26.4099C61.5126 26.7255 61.6519 27.134 61.6519 27.6353C61.6519 28.1366 61.5219 28.5451 61.262 28.8607C61.0021 29.1578 60.5564 29.3064 59.9252 29.3064ZM47.5037 29.3342C46.891 29.3342 46.4082 29.1578 46.0554 28.805C45.7212 28.4523 45.4799 27.8674 45.3313 27.0504C45.1828 26.2335 45.1085 25.1473 45.1085 23.7919C45.1085 22.3437 45.1642 20.9882 45.2756 19.7257C45.387 18.4445 45.4891 17.3027 45.582 16.3C45.6934 15.2974 45.7491 14.4897 45.7491 13.877C45.7491 13.2828 45.7212 12.8094 45.6655 12.4566C45.6284 12.0853 45.582 11.7603 45.5263 11.4818C45.4706 11.2033 45.4427 10.9155 45.4427 10.6185C45.4427 10.1543 45.5541 9.80149 45.7769 9.56012C46.0183 9.31875 46.3989 9.19806 46.9188 9.19806C47.4758 9.19806 47.9214 9.3466 48.2557 9.64367C48.5899 9.92218 48.8405 10.2842 49.0076 10.7299C49.1747 11.1755 49.2861 11.6582 49.3418 12.1781C49.3975 12.698 49.4254 13.1807 49.4254 13.6263C49.4254 14.4247 49.3697 15.3531 49.2583 16.4114C49.1469 17.4512 49.0355 18.5652 48.9241 19.7535C48.8127 20.9233 48.757 22.093 48.757 23.2627C48.757 23.9497 48.7663 24.516 48.7848 24.9616C48.822 25.4072 48.8591 25.7879 48.8962 26.1035C48.9519 26.4006 48.9891 26.6884 49.0076 26.9669C49.0448 27.2268 49.0633 27.5239 49.0633 27.8581C49.0633 28.3223 48.9241 28.6844 48.6456 28.9443C48.3671 29.2042 47.9864 29.3342 47.5037 29.3342ZM65.8876 29.2785C65.4234 29.2785 65.0428 29.1764 64.7457 28.9721C64.4487 28.7679 64.2259 28.4708 64.0773 28.0809C63.9473 27.691 63.8824 27.2547 63.8824 26.7719C63.8824 25.4908 63.8731 24.4046 63.8545 23.5134C63.8545 22.6222 63.8452 21.8516 63.8267 21.2018C63.8267 20.5333 63.8174 19.9113 63.7988 19.3358C63.7988 18.7602 63.7988 18.1475 63.7988 17.4976C63.7988 16.9963 63.8731 16.5507 64.0216 16.1608C64.1702 15.7523 64.4208 15.4274 64.7736 15.186C65.1264 14.9446 65.572 14.8239 66.1104 14.8239C66.6674 14.8239 67.1131 15.0096 67.4473 15.3809C67.8 15.7523 67.9857 16.3279 68.0043 17.1077C68.0043 17.4976 67.995 18.0361 67.9764 18.723C67.9579 19.3915 67.93 20.1434 67.8929 20.979C67.8743 21.8145 67.8557 22.65 67.8372 23.4855C67.8186 24.3025 67.8 25.0637 67.7815 25.7693C67.7629 26.4749 67.7536 27.0319 67.7536 27.4404C67.7536 27.9788 67.6051 28.4244 67.308 28.7772C67.0109 29.1114 66.5375 29.2785 65.8876 29.2785ZM66.2218 12.8744C65.3492 12.8744 64.6436 12.6423 64.1052 12.1781C63.5667 11.7139 63.2975 11.1476 63.2975 10.4792C63.2975 9.81078 63.5296 9.2909 63.9938 8.91955C64.4579 8.52964 65.0521 8.33468 65.7762 8.33468C66.3518 8.33468 66.8346 8.46465 67.2245 8.72459C67.6329 8.98454 67.9393 9.30946 68.1435 9.69937C68.3478 10.0707 68.4499 10.4606 68.4499 10.8691C68.4499 11.3333 68.2735 11.7882 67.9207 12.2338C67.5865 12.6608 67.0202 12.8744 66.2218 12.8744ZM75.2472 29.2785C74.2075 29.2785 73.3534 29.1485 72.685 28.8886C72.0165 28.6101 71.5245 28.248 71.2089 27.8024C70.8932 27.3568 70.7354 26.8926 70.7354 26.4099C70.7354 26.0385 70.8468 25.7415 71.0696 25.5186C71.2924 25.2773 71.6266 25.1566 72.0722 25.1566C72.2951 25.1566 72.4993 25.1937 72.685 25.268C72.8892 25.3423 73.1027 25.4351 73.3255 25.5465C73.5483 25.6393 73.8083 25.7229 74.1054 25.7972C74.421 25.8714 74.8016 25.9086 75.2472 25.9086C76.3241 25.9086 77.2154 25.7972 77.9209 25.5743C78.645 25.333 79.1649 24.9709 79.4806 24.4882C79.3135 24.1911 78.9978 23.959 78.5336 23.7919C78.0695 23.6248 77.531 23.4763 76.9183 23.3463C76.3056 23.2163 75.665 23.0678 74.9966 22.9007C74.3467 22.7336 73.7433 22.52 73.1863 22.2601C72.6293 22.0002 72.1744 21.6474 71.8216 21.2018C71.4688 20.7376 71.2924 20.1434 71.2924 19.4193C71.2924 18.6209 71.5152 17.9247 71.9608 17.3305C72.4065 16.7364 72.9913 16.2443 73.7154 15.8544C74.4581 15.4459 75.2658 15.1489 76.1385 14.9632C77.0297 14.7775 77.9116 14.6847 78.7843 14.6847C79.8055 14.7032 80.5575 14.9446 81.0402 15.4088C81.5415 15.873 81.7922 16.4021 81.7922 16.9963C81.7922 17.4048 81.6808 17.7297 81.458 17.9711C81.2537 18.2124 80.9659 18.3331 80.5946 18.3331C80.3904 18.3331 80.2047 18.3238 80.0376 18.3053C79.8705 18.2867 79.6848 18.2681 79.4806 18.2496C79.2949 18.2124 79.0442 18.1939 78.7286 18.1939C77.7817 18.1939 76.9554 18.3146 76.2499 18.5559C75.5629 18.7973 75.0337 19.1408 74.6624 19.5864C74.7923 19.8835 75.0801 20.1156 75.5258 20.2827C75.9899 20.4498 76.5377 20.5983 77.1689 20.7283C77.8188 20.8583 78.4779 21.0068 79.1464 21.1739C79.8333 21.3225 80.4646 21.5267 81.0402 21.7866C81.6344 22.0466 82.1171 22.3994 82.4885 22.845C82.8598 23.272 83.0455 23.8383 83.0455 24.5439C83.0455 25.6579 82.6927 26.5677 81.9871 27.2732C81.3002 27.9602 80.3625 28.4708 79.1742 28.805C78.0045 29.1207 76.6955 29.2785 75.2472 29.2785ZM89.4718 29.2785C88.4321 29.2785 87.578 29.1485 86.9096 28.8886C86.2411 28.6101 85.7491 28.248 85.4335 27.8024C85.1178 27.3568 84.96 26.8926 84.96 26.4099C84.96 26.0385 85.0714 25.7415 85.2942 25.5186C85.517 25.2773 85.8512 25.1566 86.2968 25.1566C86.5196 25.1566 86.7239 25.1937 86.9096 25.268C87.1138 25.3423 87.3273 25.4351 87.5501 25.5465C87.7729 25.6393 88.0329 25.7229 88.33 25.7972C88.6456 25.8714 89.0262 25.9086 89.4718 25.9086C90.5487 25.9086 91.44 25.7972 92.1455 25.5743C92.8696 25.333 93.3895 24.9709 93.7052 24.4882C93.5381 24.1911 93.2224 23.959 92.7582 23.7919C92.2941 23.6248 91.7556 23.4763 91.1429 23.3463C90.5302 23.2163 89.8896 23.0678 89.2212 22.9007C88.5713 22.7336 87.9679 22.52 87.4109 22.2601C86.8539 22.0002 86.399 21.6474 86.0462 21.2018C85.6934 20.7376 85.517 20.1434 85.517 19.4193C85.517 18.6209 85.7398 17.9247 86.1854 17.3305C86.6311 16.7364 87.2159 16.2443 87.94 15.8544C88.6827 15.4459 89.4904 15.1489 90.3631 14.9632C91.2543 14.7775 92.1362 14.6847 93.0089 14.6847C93.6959 14.6847 94.2529 14.7961 94.6799 15.0189C95.1256 15.2417 95.4598 15.5295 95.6826 15.8823C95.9054 16.2165 96.0168 16.5878 96.0168 16.9963C96.0168 17.4048 95.9054 17.7297 95.6826 17.9711C95.4783 18.2124 95.1905 18.3331 94.8192 18.3331C94.615 18.3331 94.4293 18.3238 94.2622 18.3053C94.0951 18.2867 93.9094 18.2681 93.7052 18.2496C93.5195 18.2124 93.2688 18.1939 92.9532 18.1939C92.0063 18.1939 91.18 18.3146 90.4745 18.5559C89.7875 18.7973 89.2583 19.1408 88.887 19.5864C89.0169 19.8835 89.3047 20.1156 89.7503 20.2827C90.2145 20.4498 90.7623 20.5983 91.3935 20.7283C92.0434 20.8583 92.7025 21.0068 93.371 21.1739C94.0579 21.3225 94.6892 21.5267 95.2648 21.7866C95.859 22.0466 96.3417 22.3994 96.7131 22.845C97.0844 23.272 97.2701 23.8383 97.2701 24.5439C97.2701 25.6579 96.9173 26.5677 96.2117 27.2732C95.5248 27.9602 94.5871 28.4708 93.3988 28.805C92.2291 29.1207 90.9201 29.2785 89.4718 29.2785ZM102.897 29.4178C102.452 29.4178 102.081 29.2785 101.783 29C101.486 28.7401 101.291 28.3594 101.199 27.8581C101.124 27.3382 101.161 26.7255 101.31 26.02C101.551 24.7945 101.932 23.467 102.452 22.0373C102.99 20.6076 103.649 19.1687 104.429 17.7204C105.209 16.2722 106.082 14.8796 107.047 13.5428C108.031 12.2059 109.09 11.0269 110.222 10.0057C110.631 9.67152 110.965 9.44872 111.225 9.33731C111.485 9.20734 111.745 9.14236 112.005 9.14236C112.302 9.14236 112.552 9.21663 112.757 9.36516C112.979 9.49513 113.147 9.69937 113.258 9.97788C113.369 10.2564 113.425 10.5813 113.425 10.9527C113.425 11.2312 113.388 11.4911 113.314 11.7325C113.258 11.9739 113.137 12.2338 112.952 12.5123C112.766 12.7722 112.487 13.0786 112.116 13.4314C111.151 14.3412 110.259 15.3531 109.442 16.4671C108.644 17.5812 107.929 18.7509 107.298 19.9763C106.667 21.2018 106.119 22.4551 105.655 23.7362C105.209 25.0173 104.866 26.3078 104.624 27.6075C104.457 28.313 104.244 28.7865 103.984 29.0279C103.742 29.2878 103.38 29.4178 102.897 29.4178ZM104.736 21.5081C104.439 21.5081 104.169 21.4339 103.928 21.2853C103.687 21.1368 103.492 20.9233 103.343 20.6448C102.693 19.605 102.127 18.7509 101.644 18.0825C101.18 17.3955 100.753 16.8106 100.363 16.3279C99.9731 15.8451 99.5925 15.3717 99.2212 14.9075C98.8498 14.4247 98.4506 13.8584 98.0236 13.2086C97.7265 12.763 97.513 12.3823 97.383 12.0667C97.253 11.7325 97.188 11.3426 97.188 10.897C97.188 10.3956 97.318 9.98717 97.578 9.67152C97.8565 9.35588 98.2092 9.19806 98.6363 9.19806C99.0076 9.19806 99.3418 9.28161 99.6389 9.44872C99.936 9.59725 100.224 9.9129 100.502 10.3956C100.911 11.1198 101.291 11.7418 101.644 12.2617C101.997 12.763 102.331 13.2271 102.647 13.6542C102.981 14.0812 103.315 14.5176 103.649 14.9632C104.002 15.4088 104.364 15.9194 104.736 16.495C105.107 17.0706 105.506 17.7854 105.933 18.6395C106.063 18.8994 106.137 19.1965 106.156 19.5307C106.175 19.8464 106.128 20.162 106.017 20.4776C105.924 20.7747 105.766 21.0254 105.543 21.2296C105.339 21.4153 105.07 21.5081 104.736 21.5081ZM120.54 29.3342C118.98 29.3342 117.597 29.0186 116.39 28.3873C115.202 27.756 114.264 26.8833 113.577 25.7693C112.909 24.6367 112.575 23.3556 112.575 21.9259C112.575 20.9418 112.769 20.0227 113.159 19.1687C113.568 18.296 114.088 17.5347 114.719 16.8849C115.35 16.2165 116.028 15.6966 116.752 15.3252C117.476 14.9539 118.163 14.7682 118.813 14.7682C119.092 14.7682 119.342 14.8146 119.565 14.9075C119.806 14.9817 120.001 15.1117 120.15 15.2974C120.299 15.4831 120.373 15.7337 120.373 16.0494C120.373 16.6064 120.252 17.1077 120.011 17.5533C119.788 17.9804 119.314 18.3331 118.59 18.6116C118.126 18.853 117.718 19.1408 117.365 19.475C117.012 19.8092 116.734 20.1899 116.529 20.6169C116.325 21.0439 116.223 21.4896 116.223 21.9537C116.223 23.1606 116.604 24.1354 117.365 24.8781C118.126 25.6022 119.138 25.9643 120.401 25.9643C121.478 25.9643 122.35 25.5929 123.019 24.8502C123.687 24.1075 124.021 23.1142 124.021 21.8702C124.021 20.7747 123.733 19.9113 123.158 19.2801C122.601 18.6302 121.84 18.3053 120.874 18.3053C120.391 18.3053 119.992 18.4167 119.676 18.6395C119.379 18.8623 119.045 19.1594 118.674 19.5307C118.395 19.8092 118.163 20.0413 117.978 20.227C117.81 20.4127 117.634 20.5519 117.448 20.6448C117.263 20.7376 117.031 20.784 116.752 20.784C116.455 20.784 116.195 20.6726 115.972 20.4498C115.75 20.227 115.638 19.8092 115.638 19.1965C115.638 18.6952 115.777 18.1939 116.056 17.6926C116.334 17.1727 116.706 16.7085 117.17 16.3C117.653 15.873 118.182 15.5295 118.757 15.2695C119.333 15.0096 119.927 14.8796 120.54 14.8796C122.025 14.8796 123.297 15.1674 124.355 15.743C125.432 16.3 126.249 17.0984 126.806 18.1382C127.382 19.1594 127.67 20.3848 127.67 21.8145C127.67 23.2442 127.354 24.5253 126.723 25.6579C126.091 26.7905 125.237 27.691 124.16 28.3594C123.102 29.0093 121.895 29.3342 120.54 29.3342ZM137.747 29.2785C136.485 29.2785 135.389 29.0279 134.461 28.5265C133.551 28.0252 132.79 27.3568 132.177 26.5213C131.583 25.6672 131.137 24.7295 130.84 23.7083C130.562 22.6871 130.422 21.6567 130.422 20.6169C130.422 19.6885 130.487 18.853 130.617 18.1103C130.766 17.3676 130.97 16.6621 131.23 15.9937C131.36 15.6409 131.546 15.3809 131.787 15.2138C132.028 15.0282 132.353 14.9353 132.762 14.9353C133.319 14.9353 133.774 15.121 134.127 15.4923C134.498 15.8451 134.684 16.3093 134.684 16.8849C134.684 17.1634 134.646 17.4326 134.572 17.6926C134.516 17.9525 134.442 18.2217 134.349 18.5002C134.275 18.7787 134.201 19.1037 134.127 19.475C134.071 19.8278 134.043 20.2456 134.043 20.7283C134.043 21.7495 134.191 22.6407 134.489 23.402C134.786 24.1632 135.203 24.7574 135.742 25.1844C136.299 25.5929 136.949 25.7972 137.691 25.7972C138.378 25.7972 138.954 25.5279 139.418 24.9895C139.882 24.4325 140.235 23.6805 140.476 22.7336C140.718 21.7866 140.839 20.6912 140.839 19.4472C140.839 19.0016 140.829 18.6209 140.811 18.3053C140.792 17.9711 140.764 17.674 140.727 17.4141C140.709 17.1355 140.699 16.8478 140.699 16.5507C140.699 16.0308 140.801 15.6316 141.006 15.3531C141.21 15.056 141.581 14.9075 142.12 14.9075C142.602 14.9075 143.011 15.0374 143.345 15.2974C143.679 15.5573 143.939 15.9937 144.125 16.6064C144.311 17.2005 144.403 17.9989 144.403 19.0016C144.403 21.2853 144.116 23.1885 143.54 24.711C142.983 26.2335 142.203 27.3754 141.201 28.1366C140.217 28.8979 139.065 29.2785 137.747 29.2785ZM150.538 29.3342C150.149 29.3342 149.805 29.2228 149.508 29C149.229 28.7586 149.007 28.4244 148.84 27.9974C148.672 27.5703 148.589 27.0876 148.589 26.5491C148.589 25.3051 148.561 24.1447 148.505 23.0678C148.45 21.9909 148.357 21.0254 148.227 20.1713C148.115 19.2986 147.948 18.5559 147.726 17.9432C147.577 17.479 147.475 17.1263 147.419 16.8849C147.382 16.6435 147.363 16.4021 147.363 16.1608C147.363 15.7894 147.475 15.4923 147.698 15.2695C147.939 15.0467 148.31 14.9353 148.812 14.9353C149.276 14.9353 149.684 15.0653 150.037 15.3252C150.409 15.5666 150.724 15.9844 150.984 16.5785C151.244 17.1727 151.448 17.9989 151.597 19.0573C151.745 20.1156 151.838 21.4431 151.875 23.0399L150.483 22.9564C150.761 21.5453 151.151 20.3291 151.653 19.3079C152.172 18.2681 152.767 17.4141 153.435 16.7456C154.122 16.0772 154.837 15.5852 155.579 15.2695C156.322 14.9353 157.046 14.7682 157.752 14.7682C158.402 14.7682 158.866 14.9353 159.144 15.2695C159.441 15.6038 159.59 16.0494 159.59 16.6064C159.59 16.9963 159.46 17.3491 159.2 17.6647C158.94 17.9618 158.513 18.2403 157.919 18.5002C156.935 18.8716 156.109 19.3358 155.44 19.8928C154.79 20.4498 154.252 21.0904 153.825 21.8145C153.416 22.5386 153.101 23.3277 152.878 24.1818C152.674 25.0359 152.525 25.9457 152.432 26.9112C152.358 27.561 152.237 28.0624 152.07 28.4151C151.922 28.7679 151.717 29.0093 151.458 29.1393C151.216 29.2692 150.91 29.3342 150.538 29.3342ZM169.225 29.2785C167.461 29.2785 165.994 28.9072 164.825 28.1645C163.655 27.4032 162.773 26.382 162.179 25.1009C161.603 23.8012 161.315 22.3344 161.315 20.7005C161.315 19.1965 161.575 17.7575 162.095 16.3836C162.634 15.0096 163.367 13.7842 164.295 12.7073C165.224 11.6304 166.301 10.7763 167.526 10.145C168.752 9.5137 170.051 9.19806 171.425 9.19806C172.836 9.19806 173.839 9.49513 174.433 10.0893C175.046 10.6649 175.352 11.4633 175.352 12.4845C175.352 13.0043 175.269 13.4871 175.102 13.9327C174.953 14.3783 174.721 14.7404 174.405 15.0189C174.09 15.2974 173.7 15.4366 173.236 15.4366C172.976 15.4366 172.762 15.3717 172.595 15.2417C172.446 15.1117 172.335 14.9446 172.261 14.7404C172.205 14.5361 172.177 14.3133 172.177 14.072C172.177 13.8677 172.14 13.6913 172.066 13.5428C172.01 13.3943 171.889 13.2736 171.704 13.1807C171.537 13.0879 171.267 13.0415 170.896 13.0415C170.023 13.0415 169.225 13.2643 168.501 13.7099C167.777 14.1369 167.155 14.7218 166.635 15.4645C166.115 16.1886 165.707 17.0056 165.41 17.9154C165.112 18.8252 164.964 19.7535 164.964 20.7005C164.964 22.3344 165.363 23.5877 166.161 24.4603C166.96 25.333 168.037 25.7693 169.392 25.7693C170.098 25.7693 170.683 25.695 171.147 25.5465C171.63 25.3794 172.01 25.1844 172.289 24.9616C172.586 24.7388 172.836 24.516 173.041 24.2932C173.263 24.0704 173.486 23.8847 173.709 23.7362C173.932 23.5877 174.192 23.5134 174.489 23.5134C174.953 23.5134 175.278 23.6434 175.464 23.9033C175.668 24.1632 175.77 24.5067 175.77 24.9338C175.77 25.4165 175.631 25.9086 175.352 26.4099C175.074 26.9112 174.647 27.3847 174.071 27.8303C173.514 28.2573 172.827 28.6101 172.01 28.8886C171.193 29.1485 170.265 29.2785 169.225 29.2785ZM180.892 29.3342C180.502 29.3342 180.158 29.2228 179.861 29C179.583 28.7586 179.36 28.4244 179.193 27.9974C179.026 27.5703 178.942 27.0876 178.942 26.5491C178.942 25.3051 178.914 24.1447 178.858 23.0678C178.803 21.9909 178.71 21.0254 178.58 20.1713C178.469 19.2986 178.301 18.5559 178.079 17.9432C177.93 17.479 177.828 17.1263 177.772 16.8849C177.735 16.6435 177.717 16.4021 177.717 16.1608C177.717 15.7894 177.828 15.4923 178.051 15.2695C178.292 15.0467 178.663 14.9353 179.165 14.9353C179.629 14.9353 180.037 15.0653 180.39 15.3252C180.762 15.5666 181.077 15.9844 181.337 16.5785C181.597 17.1727 181.801 17.9989 181.95 19.0573C182.098 20.1156 182.191 21.4431 182.228 23.0399L180.836 22.9564C181.114 21.5453 181.504 20.3291 182.006 19.3079C182.525 18.2681 183.12 17.4141 183.788 16.7456C184.475 16.0772 185.19 15.5852 185.933 15.2695C186.675 14.9353 187.399 14.7682 188.105 14.7682C188.755 14.7682 189.219 14.9353 189.497 15.2695C189.795 15.6038 189.943 16.0494 189.943 16.6064C189.943 16.9963 189.813 17.3491 189.553 17.6647C189.293 17.9618 188.866 18.2403 188.272 18.5002C187.288 18.8716 186.462 19.3358 185.793 19.8928C185.143 20.4498 184.605 21.0904 184.178 21.8145C183.769 22.5386 183.454 23.3277 183.231 24.1818C183.027 25.0359 182.878 25.9457 182.785 26.9112C182.711 27.561 182.59 28.0624 182.423 28.4151C182.275 28.7679 182.071 29.0093 181.811 29.1393C181.569 29.2692 181.263 29.3342 180.892 29.3342ZM198.997 29.2785C197.735 29.2785 196.639 29.0279 195.711 28.5265C194.801 28.0252 194.04 27.3568 193.427 26.5213C192.833 25.6672 192.387 24.7295 192.09 23.7083C191.812 22.6871 191.672 21.6567 191.672 20.6169C191.672 19.6885 191.737 18.853 191.867 18.1103C192.016 17.3676 192.22 16.6621 192.48 15.9937C192.61 15.6409 192.796 15.3809 193.037 15.2138C193.278 15.0282 193.603 14.9353 194.012 14.9353C194.569 14.9353 195.024 15.121 195.377 15.4923C195.748 15.8451 195.934 16.3093 195.934 16.8849C195.934 17.1634 195.896 17.4326 195.822 17.6926C195.766 17.9525 195.692 18.2217 195.599 18.5002C195.525 18.7787 195.451 19.1037 195.377 19.475C195.321 19.8278 195.293 20.2456 195.293 20.7283C195.293 21.5081 195.377 22.2137 195.544 22.845C195.711 23.4577 195.952 23.9869 196.268 24.4325C196.583 24.8595 196.964 25.1937 197.41 25.4351C197.874 25.6765 198.384 25.7972 198.941 25.7972C199.628 25.7972 200.204 25.5279 200.668 24.9895C201.132 24.4325 201.485 23.6805 201.727 22.7336C201.968 21.7866 202.089 20.6912 202.089 19.4472C202.089 19.0016 202.079 18.6209 202.061 18.3053C202.042 17.9711 202.014 17.674 201.977 17.4141C201.959 17.1355 201.949 16.8478 201.949 16.5507C201.949 16.0308 202.051 15.6316 202.256 15.3531C202.46 15.056 202.831 14.9075 203.37 14.9075C203.853 14.9075 204.261 15.0374 204.595 15.2974C204.929 15.5573 205.189 15.9937 205.375 16.6064C205.561 17.2005 205.654 17.9989 205.654 19.0016C205.654 21.2853 205.366 23.1885 204.79 24.711C204.233 26.2335 203.453 27.3754 202.451 28.1366C201.467 28.8979 200.315 29.2785 198.997 29.2785ZM212.625 29.2785C211.585 29.2785 210.731 29.1485 210.062 28.8886C209.394 28.6101 208.902 28.248 208.586 27.8024C208.271 27.3568 208.113 26.8926 208.113 26.4099C208.113 26.0385 208.224 25.7415 208.447 25.5186C208.67 25.2773 209.004 25.1566 209.45 25.1566C209.673 25.1566 209.877 25.1937 210.062 25.268C210.267 25.3423 210.48 25.4351 210.703 25.5465C210.926 25.6393 211.186 25.7229 211.483 25.7972C211.798 25.8714 212.179 25.9086 212.625 25.9086C213.702 25.9086 214.593 25.7972 215.298 25.5743C216.023 25.333 216.542 24.9709 216.858 24.4882C216.691 24.1911 216.375 23.959 215.911 23.7919C215.447 23.6248 214.908 23.4763 214.296 23.3463C213.683 23.2163 213.042 23.0678 212.374 22.9007C211.724 22.7336 211.121 22.52 210.564 22.2601C210.007 22.0002 209.552 21.6474 209.199 21.2018C208.846 20.7376 208.67 20.1434 208.67 19.4193C208.67 18.6209 208.893 17.9247 209.338 17.3305C209.784 16.7364 210.369 16.2443 211.093 15.8544C211.836 15.4459 212.643 15.1489 213.516 14.9632C214.407 14.7775 215.289 14.6847 216.162 14.6847C217.183 14.7032 217.935 14.9446 218.418 15.4088C218.919 15.873 219.17 16.4021 219.17 16.9963C219.17 17.4048 219.058 17.7297 218.835 17.9711C218.631 18.2124 218.343 18.3331 217.972 18.3331C217.768 18.3331 217.582 18.3238 217.415 18.3053C217.248 18.2867 217.062 18.2681 216.858 18.2496C216.672 18.2124 216.422 18.1939 216.106 18.1939C215.159 18.1939 214.333 18.3146 213.627 18.5559C212.94 18.7973 212.411 19.1408 212.04 19.5864C212.17 19.8835 212.458 20.1156 212.903 20.2827C213.367 20.4498 213.915 20.5983 214.546 20.7283C215.196 20.8583 215.855 21.0068 216.524 21.1739C217.211 21.3225 217.842 21.5267 218.418 21.7866C219.012 22.0466 219.495 22.3994 219.866 22.845C220.237 23.272 220.423 23.8383 220.423 24.5439C220.423 25.6579 220.07 26.5677 219.365 27.2732C218.678 27.9602 217.74 28.4708 216.552 28.805C215.382 29.1207 214.073 29.2785 212.625 29.2785ZM225.402 29.2228C224.938 29.2228 224.53 29.0836 224.177 28.805C223.824 28.5265 223.546 28.1181 223.341 27.5796C223.156 27.0412 223.063 26.4099 223.063 25.6858C223.063 23.8662 223.146 22.2322 223.314 20.784C223.481 19.3358 223.657 18.0268 223.843 16.857C224.028 15.6687 224.149 14.5826 224.205 13.5985C224.223 12.9301 224.214 12.3545 224.177 11.8717C224.158 11.389 224.121 10.9527 224.066 10.5627C224.028 10.1543 224.019 9.74579 224.038 9.33731C224.056 8.9474 224.186 8.60391 224.428 8.30683C224.669 7.99119 225.068 7.83337 225.625 7.83337C226.145 7.83337 226.581 8.00047 226.934 8.33468C227.287 8.65033 227.547 9.19806 227.714 9.97788C227.9 10.7391 227.965 11.7696 227.909 13.0693C227.835 13.9791 227.714 14.9725 227.547 16.0494C227.38 17.1263 227.222 18.3424 227.073 19.6978C226.943 21.0347 226.888 22.5479 226.906 24.2375L226.071 22.9285C226.869 20.9604 227.63 19.3636 228.355 18.1382C229.097 16.9127 229.84 16.0215 230.583 15.4645C231.325 14.8889 232.068 14.6011 232.811 14.6011C233.776 14.6011 234.519 14.8796 235.039 15.4366C235.577 15.9937 235.976 16.7921 236.236 17.8318C236.515 18.853 236.728 20.097 236.877 21.5638C236.988 22.6036 237.109 23.4391 237.239 24.0704C237.388 24.6831 237.536 25.1752 237.685 25.5465C237.852 25.8993 238.019 26.2242 238.186 26.5213C238.279 26.6884 238.353 26.8741 238.409 27.0783C238.483 27.2825 238.52 27.4868 238.52 27.691C238.52 28.1738 238.362 28.5637 238.047 28.8607C237.75 29.1578 237.332 29.3064 236.793 29.3064C236.144 29.3064 235.605 29.0836 235.178 28.6379C234.751 28.1923 234.407 27.5889 234.148 26.8276C233.888 26.0664 233.702 25.2123 233.591 24.2654C233.479 23.1699 233.368 22.2787 233.256 21.5917C233.145 20.8861 233.024 20.3105 232.894 19.8649C232.764 19.4193 232.606 19.0201 232.421 18.6673C232.087 18.7787 231.632 19.2151 231.056 19.9763C230.481 20.7376 229.849 21.7959 229.162 23.1513C228.475 24.5067 227.788 26.1221 227.101 27.9974C226.897 28.4801 226.665 28.805 226.405 28.9721C226.145 29.1393 225.811 29.2228 225.402 29.2228Z" fill="white"/>
</svg>
