<svg width="39" height="39" viewBox="0 0 39 39" fill="none" xmlns="http://www.w3.org/2000/svg">
<g opacity="0.31">
<g clip-path="url(#clip0_1501_7032)">
<rect x="20.5839" y="8.084" width="17.4659" height="19.3044" rx="3.67703" transform="rotate(23.9226 20.5839 8.084)" fill="white"/>
<path d="M24.2798 21.2885C25.73 21.9318 27.4272 21.2777 28.0706 19.8275C28.7139 18.3772 28.0598 16.68 26.6095 16.0367C25.1593 15.3934 23.4621 16.0475 22.8188 17.4977C22.1754 18.948 22.8295 20.6452 24.2798 21.2885Z" fill="#292D32"/>
<path d="M23.6973 22.6014C21.0661 21.4342 18.1406 22.2483 17.1761 24.4225C17.1109 24.5696 17.1751 24.7364 17.3222 24.8016L26.3448 28.8041C26.4918 28.8694 26.6586 28.8051 26.7239 28.658C27.6884 26.4838 26.3284 23.7686 23.6973 22.6014Z" fill="#292D32"/>
</g>
<rect x="20.8176" y="8.69052" width="16.5466" height="18.3851" rx="3.2174" transform="rotate(23.9226 20.8176 8.69052)" stroke="black" stroke-width="0.919258"/>
</g>
<rect x="3.59553" y="9.62922" width="19.5118" height="21.6798" rx="3.79396" transform="rotate(-5.98271 3.59553 9.62922)" fill="white"/>
<rect x="3.59553" y="9.62922" width="19.5118" height="21.6798" rx="3.79396" transform="rotate(-5.98271 3.59553 9.62922)" stroke="black" stroke-width="1.08399"/>
<path d="M14.5411 20.4713C16.4018 20.2763 17.752 18.6099 17.557 16.7492C17.362 14.8886 15.6956 13.5383 13.835 13.7333C11.9743 13.9283 10.624 15.5947 10.819 17.4554C11.014 19.316 12.6804 20.6663 14.5411 20.4713Z" fill="#292D32"/>
<path d="M14.7176 22.1558C11.3419 22.5096 8.83004 25.0617 9.12238 27.8512C9.14215 28.0399 9.30592 28.1726 9.49459 28.1528L21.0705 26.9397C21.2592 26.9199 21.3919 26.7561 21.3721 26.5675C21.0798 23.7779 18.0934 21.8021 14.7176 22.1558Z" fill="#292D32"/>
<defs>
<clipPath id="clip0_1501_7032">
<rect x="20.5839" y="8.084" width="17.4659" height="19.3044" rx="3.67703" transform="rotate(23.9226 20.5839 8.084)" fill="white"/>
</clipPath>
</defs>
</svg>
