<svg width="34" height="34" viewBox="0 0 34 34" fill="none" xmlns="http://www.w3.org/2000/svg">
<path d="M29.7911 8.76492C25.1365 8.30366 20.454 8.06604 15.7854 8.06604C13.0179 8.06604 10.2503 8.20582 7.4827 8.48537L4.63126 8.76492" stroke="url(#paint0_linear_4_17)" stroke-width="2.66058" stroke-linecap="round" stroke-linejoin="round"/>
<path d="M12.319 7.35321L12.6265 5.52214C12.8501 4.19426 13.0179 3.20184 15.3801 3.20184H19.0422C21.4045 3.20184 21.5862 4.25017 21.7958 5.53611L22.1033 7.35321" stroke="url(#paint1_linear_4_17)" stroke-width="2.66058" stroke-linecap="round" stroke-linejoin="round"/>
<path d="M26.7859 13.1819L25.8773 27.2575C25.7236 29.4519 25.5978 31.1572 21.698 31.1572H12.7243C8.82458 31.1572 8.69878 29.4519 8.54502 27.2575L7.63647 13.1819" stroke="url(#paint2_linear_4_17)" stroke-width="2.66058" stroke-linecap="round" stroke-linejoin="round"/>
<path d="M14.8769 23.4695H19.5315" stroke="url(#paint3_linear_4_17)" stroke-width="2.66058" stroke-linecap="round" stroke-linejoin="round"/>
<path d="M13.7167 17.8784H20.7056" stroke="url(#paint4_linear_4_17)" stroke-width="2.66058" stroke-linecap="round" stroke-linejoin="round"/>
<defs>
<linearGradient id="paint0_linear_4_17" x1="4.48555" y1="8.67592" x2="4.71784" y2="5.87132" gradientUnits="userSpaceOnUse">
<stop stop-color="#F135A6"/>
<stop offset="1" stop-color="#FEB21E"/>
</linearGradient>
<linearGradient id="paint1_linear_4_17" x1="12.2623" y1="6.82453" x2="20.4225" y2="0.374292" gradientUnits="userSpaceOnUse">
<stop stop-color="#F135A6"/>
<stop offset="1" stop-color="#FEB21E"/>
</linearGradient>
<linearGradient id="paint2_linear_4_17" x1="7.52558" y1="28.868" x2="30.5374" y2="20.6463" gradientUnits="userSpaceOnUse">
<stop stop-color="#F135A6"/>
<stop offset="1" stop-color="#FEB21E"/>
</linearGradient>
<linearGradient id="paint3_linear_4_17" x1="14.8499" y1="24.3421" x2="16.6852" y2="21.4773" gradientUnits="userSpaceOnUse">
<stop stop-color="#F135A6"/>
<stop offset="1" stop-color="#FEB21E"/>
</linearGradient>
<linearGradient id="paint4_linear_4_17" x1="13.6763" y1="18.7511" x2="15.1346" y2="15.3328" gradientUnits="userSpaceOnUse">
<stop stop-color="#F135A6"/>
<stop offset="1" stop-color="#FEB21E"/>
</linearGradient>
</defs>
</svg>
